<?xml version="1.0" encoding="utf-8"?>
<!-- Generator: Adobe Illustrator 21.0.2, SVG Export Plug-In . SVG Version: 6.00 Build 0)  -->
<svg version="1.1" id="Layer_1" xmlns="http://www.w3.org/2000/svg" xmlns:xlink="http://www.w3.org/1999/xlink" x="0px" y="0px"
	 width="150" viewBox="0 0 276 53" style="enable-background:new 0 0 276 53;" xml:space="preserve">
<style type="text/css">
	.st0{fill:#FFFFFF;}
</style>
<g>
	<path class="st0" d="M12.3,28.5c0,7.1,0.2,10.1,1.1,11c0.8,0.8,2,1.1,5.8,1.1c2.5,0,4.7,0,5.8-1.4c0.6-0.8,1.1-2,1.2-2.9
		c0-0.4,0.1-0.6,0.4-0.6c0.2,0,0.3,0.2,0.3,0.7c0,0.5-0.3,3.4-0.7,4.8c-0.3,1.1-0.5,1.3-3,1.3c-3.5,0-6-0.1-8-0.1
		c-2-0.1-3.5-0.1-4.9-0.1c-0.2,0-1,0-2,0c-1,0-2,0.1-2.7,0.1c-0.5,0-0.8-0.1-0.8-0.4c0-0.1,0.1-0.3,0.4-0.3c0.4,0,1-0.1,1.4-0.2
		c1-0.2,1.2-1.2,1.4-2.6c0.2-2,0.2-5.8,0.2-10.4V20c0-7.5,0-8.8-0.1-10.4C8.1,8,7.7,7.2,6.1,6.9C5.7,6.8,4.9,6.8,4.5,6.8
		c-0.2,0-0.4-0.1-0.4-0.3c0-0.3,0.2-0.4,0.8-0.4c2.2,0,5.2,0.1,5.4,0.1c0.2,0,3.7-0.1,5.2-0.1c0.5,0,0.8,0.1,0.8,0.4
		c0,0.2-0.2,0.3-0.4,0.3c-0.3,0-1,0-1.6,0.1c-1.4,0.2-1.8,1.1-1.9,2.7c-0.1,1.5-0.1,2.9-0.1,10.4V28.5z"/>
	<path class="st0" d="M39.4,30.5c0,3.9,0,7.2,0.2,8.8c0.1,1.2,0.3,2,1.5,2.2c0.6,0.1,1.5,0.2,1.9,0.2c0.2,0,0.3,0.2,0.3,0.3
		c0,0.2-0.2,0.3-0.7,0.3c-2.4,0-5.1-0.1-5.3-0.1c-0.2,0-2.9,0.1-4.2,0.1c-0.4,0-0.7-0.1-0.7-0.3c0-0.1,0.1-0.3,0.3-0.3
		c0.4,0,0.9-0.1,1.3-0.2c0.8-0.2,1-1,1.1-2.2c0.2-1.7,0.2-4.9,0.2-8.8v-7.2c0-6.3,0-7.5-0.1-8.8c-0.1-1.4-0.4-2-1.3-2.2
		c-0.5-0.1-1-0.1-1.3-0.1c-0.2,0-0.3-0.2-0.3-0.3c0-0.2,0.2-0.3,0.7-0.3c1.4,0,4,0.1,4.3,0.1c0.2,0,2.9-0.1,4.2-0.1
		c0.5,0,0.7,0.1,0.7,0.3c0,0.1-0.2,0.3-0.3,0.3c-0.3,0-0.6,0-1.1,0.1c-1.2,0.2-1.4,0.8-1.5,2.3c0,1.3,0,2.4,0,8.8V30.5z"/>
	<path class="st0" d="M53.3,23.3c0-6.3,0-7.5-0.1-8.8c-0.1-1.4-0.3-2.2-1.7-2.4c-0.3,0-1.1-0.1-1.4-0.1c-0.1,0-0.3-0.1-0.3-0.2
		c0-0.2,0.2-0.3,0.7-0.3c1.9,0,4.7,0.1,4.9,0.1c1,0,3-0.1,4.9-0.1c7.1,0,8.9,4.1,8.9,6.2c0,3.2-2.1,5.2-4.3,7.2
		c3.2,1,7.4,3.9,7.4,8.5c0,4.6-3.4,9.1-10.6,9.1c-0.8,0-2.3,0-3.6-0.1c-1.3,0-2.5-0.1-2.7-0.1c-0.1,0-0.9,0-1.7,0
		c-0.9,0-1.9,0.1-2.5,0.1c-0.4,0-0.7-0.1-0.7-0.3c0-0.1,0.1-0.2,0.3-0.2c0.4,0,0.9-0.1,1.3-0.2c0.8-0.1,0.9-1.1,1.1-2.3
		c0.2-1.7,0.2-4.9,0.2-8.8V23.3z M56.9,24.2c0,0.3,0.1,0.4,0.3,0.4c0.2,0,1,0.2,2.6,0.2c2.4,0,3.3-0.1,4.1-1.1
		c0.9-1,1.6-2.4,1.6-4.4c0-3.1-1.7-6.6-6-6.6c-0.5,0-1.5,0-2.2,0.2c-0.4,0.1-0.5,0.2-0.5,0.4V24.2z M56.9,28.7c0,3.2,0,8.1,0,8.7
		c0.1,2,0.1,2.4,1.4,3.1c1.2,0.5,2.9,0.6,3.7,0.6c2.8,0,6.2-1.1,6.2-6.3c0-1.8-0.7-5.3-4-7.4c-1.4-0.9-2.8-0.9-3.8-1.1
		c-0.5-0.1-2.6-0.1-3.3-0.1c-0.1,0-0.2,0.1-0.2,0.3V28.7z"/>
	<path class="st0" d="M81.3,23.3c0-6.3,0-7.5-0.1-8.8c-0.1-1.4-0.3-2.1-1.7-2.3c-0.3,0-1.1-0.1-1.4-0.1c-0.1,0-0.3-0.2-0.3-0.3
		c0-0.2,0.2-0.3,0.7-0.3c1.9,0,4.8,0.1,5,0.1c0.4,0,4-0.1,5.3-0.1c2.7,0,5.7,0.2,7.9,1.8c1.1,0.8,2.9,2.7,2.9,5.6c0,3-1.2,6-5.2,9.3
		c3.5,4.3,6.4,8,8.8,10.6c2.3,2.3,3.6,2.7,4.7,2.8c0.8,0.1,1.2,0.1,1.5,0.1c0.2,0,0.4,0.2,0.4,0.3c0,0.2-0.2,0.3-1,0.3H106
		c-2.4,0-3.5-0.2-4.5-0.8c-1.8-1-3.4-2.9-5.8-6c-1.8-2.2-3.6-4.8-4.6-6c-0.2-0.2-0.3-0.2-0.6-0.2l-5.4-0.1c-0.2,0-0.3,0.1-0.3,0.3v1
		c0,3.9,0,7.1,0.2,8.8c0.1,1.2,0.4,2,1.7,2.2c0.6,0.1,1.5,0.2,1.9,0.2c0.3,0,0.3,0.2,0.3,0.3c0,0.2-0.2,0.3-0.7,0.3
		c-2.3,0-5-0.1-5.2-0.1c0,0-2.9,0.1-4.2,0.1c-0.4,0-0.7-0.1-0.7-0.3c0-0.1,0.1-0.3,0.3-0.3c0.4,0,0.9-0.1,1.3-0.2
		c0.8-0.2,0.9-1,1.1-2.2c0.2-1.7,0.2-4.9,0.2-8.8V23.3z M85,26.8c0,0.2,0.1,0.4,0.3,0.5c0.6,0.3,2.8,0.6,4.7,0.6c1,0,2.2,0,3.2-0.7
		c1.4-1,2.5-3.1,2.5-6.2c0-5.1-2.8-8-7.3-8c-1.2,0-2.6,0.1-3,0.2c-0.2,0.1-0.3,0.2-0.3,0.5V26.8z"/>
	<path class="st0" d="M120.3,12.3c0.5-1.3,0.7-1.6,1-1.6c0.4,0,0.6,0.6,1,1.5c0.8,1.7,7.5,18.6,10.1,24.8c1.5,3.6,2.7,4.2,3.6,4.5
		c0.6,0.2,1.2,0.2,1.7,0.2c0.2,0,0.5,0.1,0.5,0.3c0,0.2-0.5,0.3-1,0.3c-0.6,0-3.7,0-6.7-0.1c-0.8,0-1.5,0-1.5-0.3
		c0-0.2,0.1-0.2,0.3-0.3c0.2-0.1,0.7-0.4,0.4-1.1l-3.8-9.4c-0.1-0.2-0.1-0.2-0.4-0.2h-9.7c-0.2,0-0.3,0.1-0.4,0.3l-2.4,6.5
		c-0.4,1-0.6,2-0.6,2.7c0,0.8,0.7,1.1,1.4,1.1h0.4c0.3,0,0.4,0.1,0.4,0.3c0,0.2-0.2,0.3-0.6,0.3c-1,0-3.3-0.1-3.8-0.1
		c-0.4,0-2.5,0.1-4.3,0.1c-0.5,0-0.8-0.1-0.8-0.3c0-0.2,0.2-0.3,0.4-0.3c0.3,0,0.9,0,1.2-0.1c1.9-0.2,2.7-1.7,3.6-3.7L120.3,12.3z
		 M125,29.3c0.2,0,0.2-0.1,0.1-0.3l-4.2-11.2c-0.2-0.6-0.5-0.6-0.7,0L116.3,29c0,0.2,0,0.3,0.1,0.3H125z"/>
	<path class="st0" d="M158.3,5.4c10.8,0,18.9,6.8,18.9,18c0,10.8-7.6,19.6-19.2,19.6c-13.2,0-18.6-10.2-18.6-18.9
		C139.4,16.4,145.1,5.4,158.3,5.4z M159.3,41.2c4.3,0,13.2-2.5,13.2-16.5c0-11.5-7-17.7-14.6-17.7c-8,0-14,5.3-14,15.8
		C144,34,150.7,41.2,159.3,41.2z"/>
	<path class="st0" d="M186.1,23.3c0-6.3,0-7.5-0.1-8.8c-0.1-1.4-0.3-2.1-1.7-2.3c-0.3,0-1.1-0.1-1.4-0.1c-0.1,0-0.3-0.2-0.3-0.3
		c0-0.2,0.2-0.3,0.7-0.3c1.9,0,4.6,0.1,4.9,0.1c0.9,0,4.1-0.1,6-0.1c5.4,0,7.3,1.7,8.1,2.3c1,0.9,2.1,2.7,2.1,4.9
		c0,5.9-4.4,9.7-10.9,9.7c-0.2,0-1,0-1.2,0c-0.2,0-0.4-0.2-0.4-0.4c0-0.3,0.2-0.4,1.1-0.4c4.6,0,7.8-2.9,7.8-6.6
		c0-1.3-0.1-4-2.4-6.2c-2.2-2.2-4.8-2-5.7-2c-0.7,0-1.9,0.2-2.4,0.3c-0.2,0-0.3,0.3-0.3,0.8v16.6c0,3.9,0,7.2,0.2,8.8
		c0.1,1.2,0.4,2,1.7,2.2c0.6,0.1,1.5,0.2,1.9,0.2c0.2,0,0.3,0.2,0.3,0.3c0,0.2-0.2,0.3-0.7,0.3c-2.3,0-5.1-0.1-5.3-0.1
		c-0.1,0-2.9,0.1-4.2,0.1c-0.4,0-0.7-0.1-0.7-0.3c0-0.1,0.1-0.3,0.3-0.3c0.4,0,0.9-0.1,1.3-0.2c0.8-0.2,0.9-1,1.1-2.2
		c0.2-1.7,0.2-4.9,0.2-8.8V23.3z"/>
	<path class="st0" d="M213.6,23.3c0-6.3,0-7.5-0.1-8.8c-0.1-1.4-0.3-2.1-1.7-2.3c-0.3,0-1.1-0.1-1.4-0.1c-0.1,0-0.3-0.2-0.3-0.3
		c0-0.2,0.2-0.3,0.7-0.3c1.9,0,4.7,0.1,4.9,0.1c0.3,0,9.1,0,10.1,0c0.8,0,1.6-0.2,1.9-0.2c0.2,0,0.4-0.2,0.6-0.2
		c0.1,0,0.2,0.2,0.2,0.4c0,0.3-0.2,0.8-0.3,1.9c0,0.4-0.1,2.2-0.2,2.7c0,0.2-0.2,0.4-0.4,0.4c-0.2,0-0.3-0.2-0.3-0.5
		c0-0.3,0-1-0.2-1.4c-0.3-0.7-0.7-1-3-1.2c-0.7-0.1-5.6-0.1-6.1-0.1c-0.2,0-0.2,0.1-0.2,0.4v11.1c0,0.3,0,0.4,0.2,0.4
		c0.5,0,6.1,0,7.1-0.1c1-0.1,1.6-0.1,2.1-0.6c0.3-0.3,0.5-0.5,0.6-0.5s0.2,0.1,0.2,0.3c0,0.2-0.2,0.9-0.3,2.3
		c-0.1,0.8-0.2,2.4-0.2,2.6c0,0.3-0.1,0.8-0.4,0.8c-0.2,0-0.3-0.1-0.3-0.4c0-0.4,0-0.8-0.2-1.3c-0.1-0.6-0.5-1.1-2.2-1.2
		c-1.2-0.1-5.7-0.2-6.4-0.2c-0.2,0-0.3,0.1-0.3,0.3v3.4c0,1.4,0,6.1,0,7c0.1,2.7,0.9,3.3,5,3.3c1.1,0,3.1,0,4.2-0.4
		c1.1-0.5,1.7-1.2,1.9-2.8c0.1-0.5,0.2-0.6,0.4-0.6s0.3,0.3,0.3,0.6s-0.3,3.1-0.6,3.9c-0.3,1.1-0.7,1.1-2.4,1.1
		c-3.2,0-5.6-0.1-7.3-0.1c-1.8-0.1-2.9-0.1-3.5-0.1c-0.1,0-0.9,0-1.8,0c-0.8,0-1.8,0.1-2.4,0.1c-0.4,0-0.7-0.1-0.7-0.3
		c0-0.1,0.1-0.3,0.3-0.3c0.4,0,0.9-0.1,1.3-0.2c0.8-0.1,0.9-1,1.1-2.2c0.2-1.7,0.2-4.9,0.2-8.8V23.3z"/>
	<path class="st0" d="M241.8,36.8c0.1,3.4,0.5,4.4,1.6,4.7c0.8,0.2,1.7,0.2,2.1,0.2c0.2,0,0.3,0.1,0.3,0.3c0,0.2-0.3,0.3-0.8,0.3
		c-2.4,0-4.1-0.1-4.5-0.1c-0.4,0-2.2,0.1-4.1,0.1c-0.4,0-0.7,0-0.7-0.3c0-0.2,0.1-0.3,0.3-0.3c0.3,0,1.1,0,1.7-0.2
		c1.1-0.3,1.2-1.4,1.2-5.1V13c0-1.6,0.2-2.1,0.6-2.1c0.5,0,1.2,0.8,1.6,1.2c0.7,0.7,6.8,7.2,13.3,13.9c4.2,4.3,8.7,9.2,10,10.5
		l-0.4-20.4c0-2.6-0.3-3.6-1.6-3.8c-0.8-0.1-1.7-0.2-2.1-0.2c-0.3,0-0.3-0.2-0.3-0.4c0-0.2,0.3-0.3,0.8-0.3c1.9,0,3.9,0.1,4.4,0.1
		c0.5,0,1.9-0.1,3.6-0.1c0.4,0,0.8,0,0.8,0.3c0,0.1-0.2,0.4-0.5,0.4c-0.2,0-0.5,0-1,0.1c-1.4,0.3-1.5,1.1-1.5,3.6l-0.1,23.9
		c0,2.7,0,2.9-0.3,2.9c-0.4,0-0.9-0.3-3.2-2.5c-0.4-0.4-6.5-6.4-11-11c-4.9-5.1-9.6-10.1-10.9-11.6L241.8,36.8z"/>
</g>
</svg>
